<svg xmlns="http://www.w3.org/2000/svg" xmlns:xlink="http://www.w3.org/1999/xlink" viewBox="0,0,256,256" width="64px" height="64px"><defs><radialGradient cx="34.532" cy="20.021" r="38.069" gradientUnits="userSpaceOnUse" id="color-1"><stop offset="0" stop-color="#afeeff"></stop><stop offset="0.193" stop-color="#bbf1ff"></stop><stop offset="0.703" stop-color="#d7f8ff"></stop><stop offset="1" stop-color="#e1faff"></stop></radialGradient><radialGradient cx="-31.762" cy="29.425" r="45.682" gradientUnits="userSpaceOnUse" id="color-2"><stop offset="0" stop-color="#afeeff"></stop><stop offset="0.193" stop-color="#bbf1ff"></stop><stop offset="0.703" stop-color="#d7f8ff"></stop><stop offset="1" stop-color="#e1faff"></stop></radialGradient><radialGradient cx="31.5" cy="23.923" r="41.426" gradientUnits="userSpaceOnUse" id="color-3"><stop offset="0" stop-color="#afeeff"></stop><stop offset="0.193" stop-color="#bbf1ff"></stop><stop offset="0.703" stop-color="#d7f8ff"></stop><stop offset="1" stop-color="#e1faff"></stop></radialGradient><linearGradient x1="32.002" y1="71.796" x2="32.002" y2="48.021" gradientUnits="userSpaceOnUse" id="color-4"><stop offset="0" stop-color="#e9ce8e"></stop><stop offset="0" stop-color="#e9ce8e"></stop><stop offset="0.241" stop-color="#f1dca9"></stop><stop offset="0.521" stop-color="#f9e8c0"></stop><stop offset="0.782" stop-color="#fdefcf"></stop><stop offset="1" stop-color="#fff2d4"></stop></linearGradient><linearGradient x1="61" y1="59.835" x2="61" y2="51.19" gradientUnits="userSpaceOnUse" id="color-5"><stop offset="0" stop-color="#e9ce8e"></stop><stop offset="0" stop-color="#e9ce8e"></stop><stop offset="0.241" stop-color="#f1dca9"></stop><stop offset="0.521" stop-color="#f9e8c0"></stop><stop offset="0.782" stop-color="#fdefcf"></stop><stop offset="1" stop-color="#fff2d4"></stop></linearGradient><linearGradient x1="22.65773" y1="90.53809" x2="17.7262" y2="118.51476" gradientUnits="userSpaceOnUse" id="color-6"><stop offset="0" stop-color="#76818b"></stop><stop offset="1" stop-color="#7f8a96"></stop></linearGradient><linearGradient x1="30.16368" y1="47.96088" x2="37.39189" y2="6.95508" gradientUnits="userSpaceOnUse" id="color-7"><stop offset="0" stop-color="#feaa53"></stop><stop offset="0.612" stop-color="#ffcd49"></stop><stop offset="1" stop-color="#ffde44"></stop></linearGradient><linearGradient x1="37.4672" y1="7.42809" x2="29.56651" y2="50.64167" gradientUnits="userSpaceOnUse" id="color-8"><stop offset="0.234" stop-color="#42d778"></stop><stop offset="0.761" stop-color="#34b171"></stop><stop offset="1" stop-color="#34b171"></stop></linearGradient><linearGradient x1="29.42366" y1="52.15485" x2="37.39504" y2="6.93305" gradientUnits="userSpaceOnUse" id="color-9"><stop offset="0" stop-color="#feaa53"></stop><stop offset="0.612" stop-color="#ffcd49"></stop><stop offset="1" stop-color="#ffde44"></stop></linearGradient><linearGradient x1="-20.00076" y1="25.48221" x2="50.59288" y2="37.92596" gradientUnits="userSpaceOnUse" id="color-10"><stop offset="0" stop-color="#fe9942"></stop><stop offset="0.612" stop-color="#ffc139"></stop><stop offset="1" stop-color="#ffd535"></stop></linearGradient><linearGradient x1="0.68054" y1="29.12853" x2="71.27418" y2="41.57228" gradientUnits="userSpaceOnUse" id="color-11"><stop offset="0" stop-color="#fe9942"></stop><stop offset="0.612" stop-color="#ffc139"></stop><stop offset="1" stop-color="#ffd535"></stop></linearGradient><linearGradient x1="49.75792" y1="57.46282" x2="57.22637" y2="15.10713" gradientUnits="userSpaceOnUse" id="color-12"><stop offset="0" stop-color="#fe9942"></stop><stop offset="0.612" stop-color="#ffc139"></stop><stop offset="1" stop-color="#ffd535"></stop></linearGradient><linearGradient x1="20.92489" y1="39.88926" x2="22.80129" y2="29.24438" gradientUnits="userSpaceOnUse" id="color-13"><stop offset="0" stop-color="#38a563"></stop><stop offset="0.996" stop-color="#36b372"></stop></linearGradient><linearGradient x1="41.60604" y1="43.53479" x2="43.48245" y2="32.88991" gradientUnits="userSpaceOnUse" id="color-14"><stop offset="0" stop-color="#38a563"></stop><stop offset="0.996" stop-color="#36b372"></stop></linearGradient><linearGradient x1="43.35691" y1="33.60623" x2="44.57226" y2="26.71153" gradientUnits="userSpaceOnUse" id="color-15"><stop offset="0" stop-color="#50c686"></stop><stop offset="0.591" stop-color="#52cc88"></stop><stop offset="1" stop-color="#54d189"></stop></linearGradient><linearGradient x1="12.03192" y1="41.43113" x2="17.95643" y2="7.8213" gradientUnits="userSpaceOnUse" id="color-16"><stop offset="0" stop-color="#ffc760"></stop><stop offset="0.612" stop-color="#ffd55c"></stop><stop offset="1" stop-color="#ffdc5a"></stop></linearGradient><linearGradient x1="30.27957" y1="35.78818" x2="32.27229" y2="24.48347" gradientUnits="userSpaceOnUse" id="color-17"><stop offset="0" stop-color="#ffc760"></stop><stop offset="0.612" stop-color="#ffd55c"></stop><stop offset="1" stop-color="#ffdc5a"></stop></linearGradient><linearGradient x1="19.9884" y1="42.66" x2="21.58386" y2="35.07785" gradientUnits="userSpaceOnUse" id="color-18"><stop offset="0" stop-color="#50c686"></stop><stop offset="0.591" stop-color="#52cc88"></stop><stop offset="1" stop-color="#54d189"></stop></linearGradient></defs><g transform="translate(-84.48,-84.48) scale(1.66,1.66)"><g fill="none" fill-rule="nonzero" stroke="none" stroke-width="1" stroke-linecap="butt" stroke-linejoin="miter" stroke-miterlimit="10" stroke-dasharray="" stroke-dashoffset="0" font-family="none" font-weight="none" font-size="none" text-anchor="none" style="mix-blend-mode: normal"><g transform="translate(-42.00616,32) scale(4,4)"><circle cx="61" cy="4" r="3" fill="url(#color-1)"></circle><circle cx="3" cy="36" r="3" fill="url(#color-2)"></circle><path d="M59.5,23h-9.393c-0.996,0 -1.92,-0.681 -2.08,-1.664c-0.203,-1.253 0.758,-2.336 1.973,-2.336h8.5c2.631,0 4.735,-2.258 4.479,-4.942c-0.223,-2.34 -2.322,-4.058 -4.673,-4.058h-12.806c-0.828,0 -1.5,-0.672 -1.5,-1.5c0,-0.828 0.672,-1.5 1.5,-1.5h6.33c1.625,0 3.081,-1.216 3.166,-2.839c0.09,-1.73 -1.286,-3.161 -2.996,-3.161h-46.83c-1.625,0 -3.081,1.216 -3.166,2.839c-0.09,1.73 1.286,3.161 2.996,3.161h1.893c0.996,0 1.92,0.681 2.08,1.664c0.203,1.253 -0.758,2.336 -1.973,2.336h-1.302c-1.895,0 -3.594,1.419 -3.693,3.312c-0.106,2.018 1.5,3.688 3.495,3.688h11c0.828,0 1.5,0.672 1.5,1.5c0,0.828 -0.672,1.5 -1.5,1.5h-12.328c-2.089,0 -3.955,1.527 -4.153,3.607c-0.228,2.386 1.642,4.393 3.981,4.393h9.5c0.828,0 1.5,0.672 1.5,1.5c0,0.828 -0.672,2.5 -1.5,2.5h-1.33c-1.624,0 -3.081,1.216 -3.166,2.839c-0.09,1.73 1.286,3.161 2.996,3.161h2c1.105,0 2,0.895 2,2v0c0,1.105 -0.895,2 -2,2h-7.357c-1.308,0 -2.499,0.941 -2.63,2.242c-0.15,1.497 1.021,2.758 2.487,2.758h30.5v-1h16.893c0.996,0 1.92,-0.681 2.08,-1.664c0.203,-1.253 -0.758,-2.336 -1.973,-2.336h-3.5c-0.828,0 -1.5,-0.672 -1.5,-1.5c0,-0.828 0.672,-1.5 1.5,-1.5h8c1.933,0 3.5,-1.567 3.5,-3.5v-0.5c0,-1.657 -1.343,-3 -3,-3h-4.357c-1.308,0 -2.499,-0.941 -2.63,-2.242c-0.15,-1.497 1.021,-2.758 2.487,-2.758h4.857c1.308,0 2.499,-0.941 2.63,-2.242c0.15,-1.497 -1.021,-2.758 -2.487,-2.758z" fill="url(#color-3)"></path><path d="M62,60h-11.5c-0.83,0 -1.5,-0.67 -1.5,-1.5c0,-0.83 0.67,-1.5 1.5,-1.5h2.5c0.91,0 1.76,-0.58 2,-1.46c0.36,-1.33 -0.65,-2.54 -1.93,-2.54h-48c-0.91,0 -1.76,0.58 -2,1.46c-0.36,1.33 0.65,2.54 1.93,2.54h2.5c0.83,0 1.5,0.67 1.5,1.5c0,0.83 -0.67,1.5 -1.5,1.5h-5.43c-0.91,0 -1.76,0.58 -2,1.46c-0.35,1.33 0.65,2.54 1.93,2.54h59.93c0.91,0 1.76,-0.58 2,-1.46c0.36,-1.33 -0.65,-2.54 -1.93,-2.54z" fill="url(#color-4)"></path><path d="M62,57h-2c-1.105,0 -2,-0.895 -2,-2v0c0,-1.105 0.895,-2 2,-2h2c1.105,0 2,0.895 2,2v0c0,1.105 -0.895,2 -2,2z" fill="url(#color-5)"></path><path d="M33.553,17.197l3.939,0.695l-7.2,40.833c-0.192,1.088 -1.229,1.814 -2.317,1.622v0c-1.088,-0.192 -1.814,-1.229 -1.622,-2.317z" fill="url(#color-6)"></path><path d="M58.549,36.686l-51.21,-9.03c0.023,-0.128 0.045,-0.256 0.078,-0.382c1.171,-6.181 4.271,-11.209 8.53,-14.743c1.155,-0.964 2.391,-1.812 3.707,-2.535c0.833,-0.462 1.69,-0.89 2.575,-1.242c4.564,-1.927 9.788,-2.529 15.125,-1.588l0.118,0.021c0.01,0.002 0.01,0.002 0.02,0.003l0.03,0.005c0.276,0.049 0.56,0.109 0.832,0.177c13.467,2.854 22.549,14.813 20.253,28.928c-0.013,0.13 -0.036,0.258 -0.058,0.386z" fill="url(#color-7)"></path><path d="M48.768,34.566l-31.514,-5.557c2.63,-14.911 11.485,-23.361 20.238,-21.817c8.753,1.544 13.906,12.462 11.276,27.374z" fill="url(#color-8)"></path><path d="M37.935,32.655v0l-5.195,2.13l-4.608,-3.465l-0.045,-0.402c2.582,-14.641 6.671,-24.209 9.404,-23.727c2.733,0.482 3.026,10.823 0.444,25.464z" fill="url(#color-9)"></path><path d="M17.254,29.009l-0.174,0.985c-0.479,2.718 -3.074,4.535 -5.792,4.056c-2.718,-0.479 -4.535,-3.074 -4.056,-5.792l0.174,-0.985z" fill="url(#color-10)"></path><path d="M31.969,37.696v0c-2.719,-0.48 -4.535,-3.073 -4.056,-5.792l0.174,-0.985l9.848,1.736l-0.174,0.985c-0.479,2.72 -3.072,4.536 -5.792,4.056z" fill="url(#color-11)"></path><path d="M58.616,36.302l-9.848,-1.736l-0.174,0.985c-0.48,2.72 1.336,5.313 4.056,5.792c2.72,0.48 5.313,-1.336 5.792,-4.056l0.174,-0.985z" fill="url(#color-12)"></path><path d="M21.629,35.873v0c-2.991,-0.527 -4.989,-3.38 -4.461,-6.372l0.087,-0.492l10.833,1.91l-0.087,0.492c-0.528,2.992 -3.381,4.989 -6.372,4.462z" fill="url(#color-13)"></path><path d="M42.31,39.519v0c-2.991,-0.527 -4.989,-3.38 -4.461,-6.372l0.087,-0.492l10.833,1.91l-0.087,0.492c-0.528,2.992 -3.381,4.99 -6.372,4.462z" fill="url(#color-14)"></path><path d="M43.352,33.611v0c-1.904,-0.336 -3.175,-2.151 -2.839,-4.055v0c0.336,-1.904 2.151,-3.175 4.055,-2.839v0c1.904,0.336 3.175,2.151 2.839,4.055v0c-0.336,1.903 -2.152,3.174 -4.055,2.839z" fill="url(#color-15)"></path><path d="M23.653,12.875l0.502,0.089c-3.203,3.771 -5.701,9.24 -6.901,16.045l-9.838,-1.735c1.171,-6.181 4.271,-11.209 8.53,-14.743c1.155,-0.964 2.391,-1.812 3.707,-2.535c0.833,-0.462 1.69,-0.89 2.575,-1.242c-0.302,0.333 -0.518,0.751 -0.602,1.224c-0.24,1.36 0.668,2.657 2.027,2.897z" fill="url(#color-16)"></path><path d="M30.549,31.353l-2.462,-0.434c0.429,-2.432 0.906,-4.735 1.403,-6.861l2.088,0.368c1.704,0.3 3.086,1.732 3.086,3.458c-0.009,2.243 -2.007,3.841 -4.115,3.469z" fill="url(#color-17)"></path><path d="M29.49,24.058c-0.497,2.126 -0.974,4.428 -1.403,6.861l-10.833,-1.91c1.2,-6.805 3.698,-12.274 6.901,-16.045l1.96,0.346c1.684,0.297 2.795,1.945 2.406,3.633c-0.37,1.58 -2.02,2.528 -3.615,2.246l-0.817,-0.144c-1.192,-0.21 -2.334,0.685 -2.346,1.962c-0.013,0.993 0.775,1.822 2.41,2.111z" fill="url(#color-18)"></path></g></g></g></svg>