<svg xmlns="http://www.w3.org/2000/svg" xmlns:xlink="http://www.w3.org/1999/xlink" viewBox="0,0,256,256" width="48px" height="48px"><g transform="translate(-42.24,-42.24) scale(1.33,1.33)"><g fill="none" fill-rule="nonzero" stroke="none" stroke-width="1" stroke-linecap="butt" stroke-linejoin="miter" stroke-miterlimit="10" stroke-dasharray="" stroke-dashoffset="0" font-family="none" font-weight="none" font-size="none" text-anchor="none" style="mix-blend-mode: normal"><g transform="translate(17.6,16.53333) scale(5.33333,5.33333)"><path d="M24,4c-11.04569,0 -20,8.95431 -20,20c0,11.04569 8.95431,20 20,20c11.04569,0 20,-8.95431 20,-20c0,-11.04569 -8.95431,-20 -20,-20z" fill="#e0e0e0"></path><path d="M17.148,42.77c2.635,-2.985 8.963,-12.17 9.852,-22.77c0,0 -11,-1 -22.59,8.045c1.403,6.834 6.303,12.375 12.738,14.725z" fill="#ff3d00"></path><path d="M43.786,26.77c-2.571,-2.54 -7.702,-6.77 -17.786,-6.77c0,0 7.436,9.299 8.863,20.777c4.759,-3.088 8.108,-8.136 8.923,-14.007z" fill="#43a047"></path><path d="M27,22c0,0 4.161,-5.915 5.488,-16.09c-2.579,-1.213 -5.449,-1.91 -8.488,-1.91c-3.578,0 -6.93,0.951 -9.835,2.598c2.33,1.404 8.501,6.734 12.835,15.402z" fill="#ffc107"></path><path d="M27,18c-1.65685,0 -3,1.34315 -3,3c0,1.65685 1.34315,3 3,3c1.65685,0 3,-1.34315 3,-3c0,-1.65685 -1.34315,-3 -3,-3z" fill="#bf1600"></path></g></g></g></svg>